<svg width="78" height="93" viewBox="0 0 78 93" fill="none" xmlns="http://www.w3.org/2000/svg">
<g clip-path="url(#clip0_519_3091)">
<path d="M38.6513 92.6443C31.3974 92.6443 24.1435 92.6767 16.8897 92.6191C15.1626 92.6047 13.3995 92.4716 11.7227 92.0794C5.2101 90.561 0.834753 85.8366 0.334611 78.9282C-0.273476 70.4725 0.737603 62.1536 4.8143 54.5039C7.89072 48.7289 12.6727 45.3647 19.3112 45.156C20.7577 45.1128 22.3301 45.7173 23.6722 46.3721C26.2952 47.6531 28.6988 49.4198 31.3758 50.5604C37.705 53.2554 43.7966 52.1867 49.6004 48.8153C50.5324 48.2756 51.4895 47.7394 52.3098 47.0558C55.2207 44.627 58.4555 44.7602 61.8233 45.7029C66.6808 47.063 70.1279 50.1682 72.4019 54.5543C76.5614 62.5782 77.6372 71.2317 76.6981 80.0616C75.9173 87.391 69.5773 92.4824 61.6722 92.6011C54.001 92.7199 46.3261 92.6263 38.6513 92.6263C38.6513 92.6335 38.6513 92.6371 38.6513 92.6443Z" fill="#303138"/>
<path d="M15.8438 22.7358C15.8222 10.441 25.6559 0.553278 37.9436 0.524493C50.278 0.492109 60.2629 10.4626 60.2233 22.7718C60.1837 35.0415 50.2996 44.8644 37.9976 44.8608C25.6559 44.8572 15.869 35.0811 15.8474 22.7358H15.8438Z" fill="#303138"/>
</g>
<defs>
<clipPath id="clip0_519_3091">
<rect width="76.842" height="92.1341" fill="white" transform="translate(0.171875 0.524414)"/>
</clipPath>
</defs>
</svg>
