<svg width="32" height="25" viewBox="0 0 32 25" fill="none" xmlns="http://www.w3.org/2000/svg">
<path d="M7.71871 20.4911C8.57047 20.9057 9.37603 21.2989 10.3044 21.7507C9.77824 22.5867 9.27012 23.4147 8.72933 24.2214C8.66849 24.3116 8.39696 24.3319 8.255 24.2868C5.67045 23.4609 3.2763 22.2532 1.08269 20.6556C0.930592 20.5451 0.801026 20.3097 0.784126 20.1215C0.20953 13.9136 1.78009 8.25555 5.19838 3.0808C5.31217 2.90843 5.50032 2.73379 5.6896 2.67295C7.53845 2.07357 9.39518 1.5001 11.2474 0.91424C11.6541 0.7858 11.9189 0.923253 12.0226 1.32434C12.2794 2.32144 12.8777 2.45551 13.868 2.38791C15.6414 2.26736 17.4339 2.40143 19.2174 2.45438C19.5182 2.4634 19.6816 2.4172 19.8213 2.12765C20.468 0.788053 20.4939 0.73848 21.927 1.1407C23.4311 1.56319 24.907 2.08822 26.3818 2.60761C26.6579 2.7045 26.9339 2.94673 27.0984 3.19572C30.4761 8.29949 31.9993 13.8911 31.445 20.01C31.4225 20.2624 31.24 20.5756 31.0338 20.7254C28.9055 22.2734 26.579 23.4362 24.0801 24.2631C23.6992 24.3893 23.4931 24.3206 23.2959 23.9871C22.8588 23.2458 22.3957 22.5213 21.918 21.7484C22.8126 21.3135 23.6328 20.9136 24.4992 20.4922C24.1938 20.0134 23.9122 19.921 23.4255 20.1294C18.5741 22.2104 13.7047 22.1878 8.84537 20.1553C8.38232 19.9615 8.0522 19.9435 7.71871 20.4911ZM18.4975 13.81C18.5065 15.3355 19.5002 16.6334 20.8251 16.8486C22.6064 17.137 24.1533 15.5721 24.0294 13.6049C23.9268 11.9747 22.7968 10.7319 21.3704 10.6824C19.7604 10.6272 18.4873 12.013 18.4975 13.81ZM8.22684 13.7841C8.22684 15.3073 9.21379 16.6199 10.5297 16.8452C12.2873 17.146 13.8151 15.6543 13.7599 13.6906C13.7125 12.022 12.5453 10.7173 11.0683 10.6824C9.48531 10.6452 8.22796 12.0163 8.22684 13.7829V13.7841Z" fill="#5865F2"/>
</svg>
