<svg width="41" height="41" viewBox="0 0 41 41" fill="none" xmlns="http://www.w3.org/2000/svg">
<g clip-path="url(#clip0_213_553)">
<g clip-path="url(#clip1_213_553)">
<path d="M8 20.3475C9.08315 18.5764 10.1595 16.8006 11.2504 15.0343C12.5837 12.8767 13.9306 10.7268 15.2716 8.57404C15.4672 8.65549 15.473 8.79093 15.3913 8.95572C15.4818 8.7682 15.6073 8.61192 15.7718 8.47554C16.345 7.99725 16.3489 7.95842 16.0482 7.33049C17.0583 5.67115 18.0666 4.01087 19.0806 2.35344C19.4679 1.71982 19.8708 1.09568 20.2669 0.466797C20.4859 0.510364 20.4616 0.68842 20.4762 0.838063C20.4927 1.01044 20.483 1.1847 20.4839 1.35803C20.4859 5.78481 20.48 10.2116 20.4878 14.6365C20.4908 14.6933 20.4937 14.7501 20.4995 14.807C20.4976 14.8922 20.4616 14.9623 20.3964 15.0182C18.9376 15.7228 17.4369 16.3432 15.9567 17.0042C14.7539 17.5413 13.551 18.0773 12.3404 18.5973C12.2362 18.6446 12.1311 18.691 12.027 18.7403C11.7691 18.8748 11.485 18.9487 11.228 19.0841C11.1249 19.1352 11.0207 19.1854 10.9166 19.2337C10.1799 19.5472 9.44711 19.8683 8.7221 20.2074C8.49924 20.3115 8.27638 20.4811 7.99902 20.3475H8Z" fill="#8D8D8D"/>
<path d="M24.6325 6.80057C25.6056 8.34435 26.5701 9.89382 27.5053 11.4603C28.4103 12.9767 29.3835 14.456 30.3129 15.9591C31.1761 17.3542 32.0208 18.7597 32.8743 20.1614C32.6982 20.4484 32.4734 20.2807 32.2855 20.2002C31.0584 19.6793 29.839 19.1395 28.6293 18.5807C27.5647 18.0891 26.4766 17.6506 25.411 17.1648C25.2222 17.0786 25.0247 17.0009 24.8797 16.8446C24.6967 16.4649 24.4106 16.3001 23.9795 16.4374C23.6301 16.4762 23.3761 16.2432 23.0783 16.1372C22.4418 15.9098 21.8667 15.5499 21.238 15.3046C21.0833 15.244 20.9626 15.1427 20.9198 14.9741C20.876 14.7875 20.8848 14.5981 20.8848 14.4096C20.8838 11.6109 20.8867 8.81127 20.8809 6.01257C20.8809 5.60437 20.9149 5.235 21.2964 4.96886C21.4677 4.84952 21.5056 4.61843 21.6234 4.44984C21.8025 4.19318 22.0565 4.07005 22.3688 4.09752C22.6812 4.12499 22.6666 4.40438 22.7581 4.662C22.6881 4.35797 22.7766 4.22633 23.054 4.25C23.5795 5.01621 24.0612 5.808 24.5186 6.61398C24.4417 6.74279 24.5556 6.76079 24.6325 6.80151V6.80057Z" fill="#2C2C2C"/>
<path d="M24.9156 16.7549C25.7875 17.308 26.7841 17.6063 27.7135 18.043C29.2248 18.7533 30.7644 19.4068 32.2952 20.0774C32.4733 20.156 32.6533 20.3208 32.8752 20.1616C33.0114 20.2876 33.0747 20.4136 32.8625 20.5263C32.6806 20.6229 32.4957 20.7148 32.3127 20.8076C32.1434 20.7564 32.0772 20.8672 32.0149 20.9856C31.4008 21.3361 30.7868 21.6855 30.1727 22.036C30.0053 21.9905 29.9362 22.0966 29.8749 22.2159C28.9727 22.7293 28.0696 23.2426 27.1675 23.755C27.039 23.8317 26.8162 23.7796 26.8006 24.0116C26.5077 24.4018 26.026 24.5221 25.6416 24.7816C24.7647 25.2789 23.8966 25.7931 23.0218 26.2942C22.4233 26.6389 21.8189 26.9742 21.2233 27.3246C21.0715 27.4136 20.9177 27.5046 20.7289 27.5074C20.6735 27.5008 20.6258 27.4809 20.582 27.4468C20.4934 27.3587 20.4711 27.2526 20.4934 27.1352C20.5158 23.4036 20.4964 19.672 20.5032 15.9404C20.5032 15.6733 20.4905 15.4053 20.5187 15.1382C20.5285 15.0804 20.5499 15.0264 20.581 14.9762C20.7591 14.8095 20.8934 14.9241 21.0277 15.0416C22.0155 15.5227 22.9828 16.0465 24.0426 16.3742C24.3881 16.3817 24.6421 16.5892 24.9165 16.753L24.9156 16.7549Z" fill="#040404"/>
<path d="M11.1881 19.0077C11.4538 18.8884 11.7195 18.769 11.9861 18.6487C12.1088 18.6819 12.1993 18.6431 12.2616 18.536C14.1631 17.6846 16.0628 16.8303 17.9663 15.9836C18.7565 15.6322 19.5546 15.296 20.3496 14.9531C20.3973 14.9957 20.4314 15.0469 20.4509 15.1075C20.4976 15.2941 20.4839 15.4835 20.4839 15.6729C20.4849 19.2994 20.4839 22.9268 20.4839 26.5533C20.4839 26.8052 20.4878 27.0581 20.4343 27.3053C20.4392 27.3583 20.4324 27.4114 20.4168 27.4616C20.1745 27.7012 20.0003 27.4483 19.8339 27.3574C18.4198 26.5864 17.0525 25.7388 15.6443 24.9584C14.2926 24.2092 12.9788 23.3975 11.628 22.6465C11.4733 22.5603 11.3244 22.4646 11.2027 22.3349C10.3045 21.7079 9.31282 21.2296 8.37954 20.6585C8.24038 20.5733 8.03795 20.5505 8 20.346C8.83888 20.0685 9.6145 19.6517 10.4242 19.3098C10.5857 19.2416 10.7522 19.1848 10.9166 19.1223C11.0373 19.1498 11.1307 19.1176 11.1881 19.0058V19.0077Z" fill="#323232"/>
<path d="M20.2578 38.9917C18.7367 36.91 17.2147 34.8282 15.6955 32.7456C13.285 29.4411 10.8763 26.1357 8.47162 22.8274C8.35776 22.6712 8.18453 22.5348 8.17285 22.2402C9.28033 22.8596 10.3353 23.4497 11.3902 24.0407C11.5994 24.0719 11.7853 24.1524 11.9683 24.2585C14.6367 25.8137 17.3237 27.3404 20.0009 28.8823C20.2101 29.0026 20.4485 29.0689 20.6422 29.2176C20.6714 29.2621 20.6772 29.3094 20.6607 29.3606C20.6101 29.4534 20.5303 29.5292 20.504 29.6362C20.4612 32.1612 20.4972 34.6862 20.4855 37.2102C20.4836 37.6516 20.4962 38.0939 20.4787 38.5352C20.4719 38.7085 20.5322 38.9321 20.2588 38.9927L20.2578 38.9917Z" fill="#8D8D8D"/>
<path d="M28.3883 24.7837C28.4934 24.7468 28.5995 24.7108 28.7046 24.6738C28.8808 24.9551 28.5995 25.0498 28.474 25.2071C28.3611 25.3482 28.1791 25.3794 28.0214 25.4524C28.0623 25.6105 28.1499 25.7478 28.148 25.9079C28.145 26.121 28.2394 26.2356 28.4613 26.3123C28.909 26.4676 28.9781 26.6533 28.836 27.1808C29.0297 27.0378 29.1017 26.8474 29.2214 26.695C29.3683 26.5084 29.526 26.3066 29.8101 26.5055C28.8477 27.84 27.892 29.1792 26.9218 30.508C25.2917 32.7432 23.6528 34.9717 22.0169 37.2031C21.2014 37.4588 20.8949 37.2505 20.8929 36.4227C20.888 34.3807 20.8929 32.3378 20.89 30.2959C20.89 30.061 20.9075 29.8242 20.8608 29.5922C20.818 29.4652 20.817 29.3203 20.707 29.218C20.9133 28.8477 21.3075 28.6924 21.653 28.521C22.4169 28.1412 23.0835 27.6004 23.8825 27.286C24.0363 27.2822 24.1852 27.2642 24.299 27.1467C24.8888 26.5643 25.644 26.2328 26.3631 25.8435C26.5179 25.7602 26.6678 25.6655 26.8089 25.5594C27.2877 25.208 27.8677 25.0527 28.3883 24.7818V24.7837Z" fill="#2C2C2C"/>
<path d="M21.0281 15.0421C20.8986 15.008 20.7692 14.9739 20.6398 14.9398C20.4987 14.8034 20.5035 14.6254 20.5035 14.4539C20.5016 10.0622 20.4957 5.67141 20.5055 1.27967C20.5055 1.20106 20.5152 1.12245 20.5337 1.04574C20.5814 0.890412 20.6874 0.787177 20.8393 0.726562C21.6626 1.85078 22.3477 3.05645 23.0532 4.25075C22.4713 4.48184 23.0484 4.77734 23.0241 5.09178C22.7778 4.94972 22.7564 4.71483 22.6416 4.5453C22.554 4.4146 22.6007 4.14657 22.338 4.19392C22.1112 4.2356 21.8426 4.24223 21.7229 4.50457C21.5828 4.81144 21.5234 5.15524 21.1137 5.29541C20.9512 5.35034 21.029 5.61174 21.029 5.78033C21.0261 8.8679 21.0271 11.9555 21.0271 15.0421H21.0281Z" fill="#2D2D2D"/>
<path d="M29.8101 26.5061C29.5094 26.4787 29.344 26.6226 29.236 26.8888C29.1435 27.1161 29.0092 27.333 28.6861 27.2638C28.945 26.7221 28.8555 26.527 28.2667 26.4039C28.1158 26.3726 28.0321 26.3205 28.0351 26.1671C28.0351 26.1358 28.0292 26.1036 28.0341 26.0733C28.0691 25.8119 27.8667 25.5979 27.8482 25.3838C27.8297 25.1698 28.2754 25.4047 28.4058 25.113C28.472 24.9661 28.7231 24.9017 28.7046 24.6735C29.8822 23.8599 31.1492 23.1922 32.3998 22.4961C32.463 22.5539 32.4796 22.623 32.4475 22.7016C32.6275 22.8446 32.4358 22.9242 32.3774 23.0037C31.5259 24.1744 30.6665 25.3393 29.8092 26.5061H29.8101Z" fill="#2B2B2B"/>
<path d="M20.8337 29.4336C21.1306 29.4933 21.0235 29.7272 21.0235 29.8929C21.0303 32.0457 21.0274 34.1975 21.0274 36.3503C21.0274 36.906 21.3116 37.1759 21.8799 37.1601C21.9247 37.1591 21.9714 37.1895 22.0162 37.2056C21.8838 37.3647 21.7515 37.5238 21.6191 37.6838C21.5889 37.6535 21.5607 37.6232 21.5315 37.5929C21.5617 37.6223 21.5918 37.6516 21.623 37.6801C21.5189 38.0693 21.1899 38.3146 20.9807 38.6357C20.9165 38.666 20.8571 38.6594 20.8016 38.6149C20.6751 38.4501 20.6975 38.2568 20.6965 38.0703C20.6936 35.3843 20.6936 32.6983 20.6965 30.0123C20.6965 29.8408 20.6819 29.6656 20.7676 29.5037C20.789 29.48 20.8114 29.4573 20.8328 29.4345L20.8337 29.4336Z" fill="#2E2E2E"/>
<path d="M20.4145 14.8494C20.2939 14.6771 20.3493 14.4819 20.3493 14.2973C20.3464 9.86953 20.3474 5.4418 20.3435 1.01408C20.3435 0.832231 20.4116 0.634286 20.2676 0.468542C20.3046 0.384249 20.3192 0.281014 20.4457 0.273438C20.5498 0.406033 20.5751 0.562305 20.5732 0.720472C20.5002 5.27038 20.5634 9.82028 20.5391 14.3702C20.5391 14.5359 20.5916 14.7235 20.4155 14.8494H20.4145Z" fill="#929292"/>
<path d="M20.6426 0.931559C20.6426 5.6008 20.6407 10.27 20.6397 14.9393V14.9525C20.5706 14.9762 20.5239 14.9544 20.4996 14.8862C20.4957 14.8256 20.4947 14.765 20.4947 14.7044C20.4947 10.0645 20.4947 5.42558 20.4967 0.785704C20.4967 0.616172 20.448 0.438116 20.5443 0.27616C20.6816 0.265742 20.6475 0.363294 20.6514 0.436221C20.7205 0.602912 20.775 0.768656 20.6417 0.931559H20.6426Z" fill="#161616"/>
<path d="M20.5454 0.275332C20.5435 5.13305 20.5416 9.98982 20.5396 14.8475C20.5182 14.893 20.4909 14.8968 20.4579 14.8579L20.415 14.8494C20.4248 14.6448 20.4433 14.4412 20.4433 14.2366C20.4452 9.58256 20.4452 4.92752 20.4452 0.273438C20.4783 0.273438 20.5114 0.275332 20.5445 0.275332H20.5454Z" fill="#737373"/>
<path d="M20.8325 38.6151C20.8821 38.6208 20.9317 38.6274 20.9814 38.6331C20.9347 38.7439 20.885 38.8528 20.7663 38.9106C20.5269 38.9201 20.5337 38.7382 20.5133 38.5905C20.4899 38.4191 20.5016 38.2458 20.5016 38.0724C20.5016 35.4338 20.5016 32.7951 20.5026 30.1565C20.5026 29.9377 20.4782 29.7161 20.5425 29.5002C20.5649 29.4405 20.595 29.3856 20.6339 29.3344C20.6485 29.3069 20.6515 29.2776 20.6437 29.2482C20.6563 29.2283 20.6738 29.2208 20.6982 29.2264C20.8432 29.2331 20.9113 29.2871 20.8334 29.432C20.7517 29.5456 20.7848 29.6754 20.7848 29.7985C20.7828 32.6152 20.7828 35.4309 20.7848 38.2476C20.7848 38.3708 20.7527 38.5005 20.8325 38.6151Z" fill="#303030"/>
<path d="M20.6342 29.3359C20.6352 29.3644 20.6362 29.3928 20.6381 29.4212C20.5457 29.5841 20.5924 29.7602 20.5924 29.9298C20.5943 32.917 20.5788 35.9051 20.5982 38.8923C20.5982 39.0021 20.6012 39.112 20.5457 39.2133C20.4999 39.3203 20.4649 39.2654 20.4299 39.2067C20.3491 38.9917 20.4016 38.7691 20.4007 38.5513C20.3968 35.6853 20.3968 32.8194 20.3997 29.9535C20.3997 29.782 20.3647 29.6068 20.4357 29.4392C20.4746 29.3549 20.5544 29.3445 20.6352 29.3359H20.6342Z" fill="#6D6D6D"/>
<path d="M20.434 29.4395C20.432 32.6956 20.4301 35.9508 20.4281 39.207C20.3717 39.1359 20.3143 39.064 20.2578 38.9929C20.4145 38.8319 20.3435 38.6321 20.3435 38.4512C20.3483 35.6279 20.3454 32.8055 20.3503 29.9821C20.3503 29.8012 20.2792 29.6014 20.434 29.4395Z" fill="#919191"/>
<path d="M20.5446 39.2121C20.5446 36.0942 20.5417 32.9773 20.5446 29.8594C20.5446 29.7116 20.4794 29.5402 20.6371 29.4199C20.6371 32.4099 20.6371 35.4009 20.6429 38.3919C20.6429 38.568 20.5563 38.7764 20.7665 38.9109C20.6351 38.9715 20.6993 39.1685 20.5446 39.213V39.2121Z" fill="#151515"/>
<path d="M16.0478 7.33197C16.4702 7.58011 16.5003 8.0603 16.0936 8.35295C15.7461 8.60299 15.5116 8.95247 15.1953 9.24892C15.2294 9.01498 15.4824 8.81798 15.2712 8.57458C15.4318 8.29707 15.5924 8.01957 15.7539 7.74207C15.9077 7.70892 15.9359 7.5839 15.967 7.46173C15.9943 7.41816 16.0206 7.37459 16.0478 7.33008V7.33197Z" fill="#8C8C8C"/>
<path d="M26.9622 23.9415C26.9096 23.9472 26.8571 23.9529 26.8055 23.9585C26.75 23.933 26.6683 23.9216 26.644 23.878C26.605 23.8117 26.6663 23.7653 26.7364 23.7625C26.8804 23.7559 27.0245 23.7578 27.1685 23.7559C27.1004 23.8174 27.0323 23.8799 26.9632 23.9415H26.9622Z" fill="#050505"/>
<path d="M20.6426 0.930884C20.6455 0.766087 20.6494 0.600344 20.6523 0.435547C20.7895 0.486691 20.8508 0.583296 20.8411 0.725362C20.8294 0.84375 20.7808 0.928043 20.6426 0.930884Z" fill="#373737"/>
<path d="M32.4471 22.7024C32.4315 22.6342 32.415 22.5651 32.3994 22.4969C32.4919 22.3861 32.6116 22.3359 32.7644 22.334C32.8004 22.5793 32.6447 22.6579 32.4471 22.7034V22.7024Z" fill="#212121"/>
<path d="M32.0148 20.9851C31.9408 20.6517 32.0956 20.6801 32.3126 20.807C32.2367 20.9027 32.1326 20.9548 32.0148 20.9851Z" fill="#232323"/>
<path d="M29.8739 22.216C29.798 21.8826 29.9547 21.911 30.1717 22.036C30.0987 22.1364 29.9897 22.1819 29.8739 22.216Z" fill="#242424"/>
<path d="M24.6325 6.80081C24.5479 6.82733 24.4496 6.90025 24.3873 6.78376C24.3202 6.65874 24.4184 6.62938 24.5187 6.61328C24.5566 6.67579 24.5946 6.7383 24.6325 6.80081Z" fill="#393939"/>
<path d="M15.967 7.46289C16.078 7.68736 15.9554 7.74418 15.7539 7.74323C15.8249 7.64947 15.896 7.55665 15.967 7.46289Z" fill="#8D8D8D"/>
<path d="M20.4586 14.8581C20.4868 14.859 20.5141 14.8562 20.5403 14.8477C20.5423 14.8827 20.5452 14.9168 20.5472 14.9518C20.6153 15.0693 20.588 15.1981 20.588 15.3222C20.589 19.1759 20.589 23.0297 20.588 26.8835C20.588 27.0076 20.6163 27.1364 20.5462 27.2529C20.5832 27.3135 20.6211 27.3741 20.6581 27.4347C20.5695 27.5001 20.4849 27.5076 20.409 27.4148C20.3827 23.7912 20.408 20.1666 20.3934 16.542C20.3914 16.041 20.4547 15.5371 20.3477 15.039C20.3477 15.0106 20.3486 14.9831 20.3496 14.9547C20.3856 14.9225 20.4226 14.8903 20.4586 14.8581Z" fill="#212121"/>
<path d="M13.2391 12.666C13.2254 13.0146 13.3957 13.2722 13.1369 13.473C13.0191 13.5639 12.8809 13.6254 12.7466 13.5061C12.6182 13.3924 12.7505 13.3129 12.8089 13.2324C12.9276 13.0695 13.0522 12.9104 13.2381 12.666H13.2391Z" fill="#919191"/>
<path d="M11.1885 19.0078C11.2839 19.0798 11.2323 19.1347 11.1603 19.1736C11.0698 19.2219 10.9841 19.2086 10.917 19.1243C11.0075 19.0855 11.098 19.0466 11.1885 19.0078Z" fill="#2B2B2B"/>
<path d="M12.2617 18.5371C12.3561 18.6129 12.2977 18.665 12.2267 18.7019C12.1362 18.7493 12.0506 18.7341 11.9854 18.6498C12.0768 18.6119 12.1693 18.575 12.2608 18.5371H12.2617Z" fill="#2D2D2D"/>
<path d="M24.9159 16.7543C24.5841 16.7164 24.3028 16.5686 24.042 16.3745C24.2824 16.1301 24.7806 16.3461 24.9159 16.7543Z" fill="#262626"/>
<path d="M20.5449 27.2531C20.5449 23.1531 20.5449 19.0521 20.5459 14.9521C20.577 14.9483 20.6082 14.9483 20.6383 14.9521C20.6383 18.8731 20.6383 22.7932 20.6345 26.7132C20.6345 26.8932 20.7074 27.094 20.5439 27.2521L20.5449 27.2531Z" fill="#010101"/>
<path d="M20.4343 27.437C20.5082 27.437 20.5832 27.4351 20.6571 27.4351C20.6883 27.4342 20.7175 27.4389 20.7467 27.4503C20.6357 27.5744 20.5082 27.6265 20.3476 27.5384C20.3476 27.4986 20.3457 27.4598 20.3457 27.42C20.3817 27.3944 20.4119 27.4001 20.4352 27.437H20.4343Z" fill="#1D1D1D"/>
<path d="M20.4343 27.4367C20.4031 27.4376 20.3739 27.432 20.3447 27.4197C20.3447 25.2318 20.3467 23.045 20.3467 20.8581C20.3467 18.9184 20.3467 16.9787 20.3467 15.0391C20.4683 15.1319 20.443 15.2645 20.443 15.3876C20.4401 19.4043 20.4372 23.42 20.4333 27.4367H20.4343Z" fill="#363636"/>
<path d="M23.9774 27.2669C24.1039 27.283 24.2159 27.0614 24.3531 27.2452C24.2334 27.3427 24.1283 27.4952 23.9443 27.3484C23.9599 27.3228 23.9706 27.2963 23.9774 27.2679V27.2669Z" fill="#343434"/>
<path d="M20.8326 38.6157C20.6838 38.4926 20.7383 38.324 20.7383 38.1734C20.7353 35.4069 20.7353 32.6404 20.7383 29.8739C20.7383 29.7234 20.6847 29.5548 20.8336 29.4316C20.8336 32.4927 20.8336 35.5537 20.8336 38.6148L20.8326 38.6157Z" fill="#2A2A2A"/>
<path d="M21.6231 37.6794C21.4508 37.6519 21.2971 37.6131 21.4431 37.3555C21.5744 37.435 21.5997 37.5582 21.6192 37.6832L21.6231 37.6794Z" fill="#2C2C2C"/>
</g>
</g>
<defs>
<clipPath id="clip0_213_553">
<rect width="40" height="40" fill="white" transform="translate(0.5 0.273438)"/>
</clipPath>
<clipPath id="clip1_213_553">
<rect width="25" height="39" fill="white" transform="translate(8 0.273438)"/>
</clipPath>
</defs>
</svg>
