<svg width="25" height="25" viewBox="0 0 25 25" fill="none" xmlns="http://www.w3.org/2000/svg">
<g clip-path="url(#clip0_1126_19796)">
<path d="M24.2465 24.3008H19.4084C19.4084 24.0989 19.4084 23.8983 19.4084 23.6987C19.4084 21.1942 19.4187 18.6908 19.3958 16.1863C19.39 15.5797 19.3258 14.9616 19.1928 14.371C18.9279 13.1979 18.272 12.6578 17.1332 12.5695C15.8087 12.4663 14.8099 12.9502 14.3971 13.9972C14.1907 14.5201 14.0427 15.1027 14.0324 15.6611C13.9843 18.2987 13.9934 20.9362 13.982 23.5737C13.982 23.8008 13.982 24.0267 13.982 24.3031H9.12891V8.71066H13.779V10.8207C14.6551 9.49045 15.7342 8.72901 17.1183 8.43659C18.4967 8.14531 19.8614 8.24049 21.1732 8.7508C22.8555 9.40559 23.6663 10.7805 23.9805 12.4582C24.1651 13.4479 24.2443 14.4674 24.258 15.4754C24.2959 18.2654 24.2741 21.0566 24.2752 23.8478C24.2752 23.9797 24.2592 24.1115 24.2465 24.2996V24.3008Z" fill="#0077B7"/>
<path d="M6.00504 24.3224H1.20703V8.70703H6.0039V24.3224H6.00504Z" fill="#0077B7"/>
<path d="M0.800784 3.67102C0.803078 2.1057 2.0324 0.87294 3.59771 0.867207C5.17106 0.861473 6.45542 2.14469 6.43593 3.70313C6.41643 5.24436 5.14583 6.51955 3.62294 6.52643C2.06565 6.53331 0.798491 5.25124 0.800784 3.67102Z" fill="#0077B7"/>
</g>
<defs>
<clipPath id="clip0_1126_19796">
<rect width="23.4821" height="23.4545" fill="white" transform="translate(0.800781 0.867188)"/>
</clipPath>
</defs>
</svg>
