<svg width="43" height="43" viewBox="0 0 43 43" fill="none" xmlns="http://www.w3.org/2000/svg">
<rect x="0.0195312" y="0.0839844" width="42.2333" height="42.2333" rx="8.44667" fill="#F3F3F3"/>
<path d="M22.8102 21.1929C22.8146 25.6609 19.2265 29.289 14.7952 29.2957C10.3751 29.3035 6.75808 25.6642 6.75586 21.2085C6.75364 16.7484 10.354 13.1113 14.7797 13.1057C19.2076 13.1002 22.8057 16.7239 22.8102 21.1929Z" fill="black"/>
<path d="M23.6554 21.6848C23.6943 19.4358 23.9146 17.6729 24.7488 16.0624C25.0824 15.4172 25.5273 14.791 26.0479 14.2894C27.0389 13.3351 28.3703 13.3184 29.329 14.3028C29.9463 14.9356 30.5036 15.7142 30.825 16.5317C32.0385 19.6149 32.0385 22.7537 30.8428 25.8469C30.5503 26.6043 30.0731 27.3351 29.5259 27.9379C28.427 29.148 26.9755 29.1113 25.821 27.9435C24.781 26.8902 24.2783 25.5566 23.9891 24.1484C23.7922 23.1919 23.7233 22.2098 23.6543 21.687L23.6554 21.6848Z" fill="black"/>
<path d="M35.5157 21.6545C35.3411 22.997 35.1153 24.7733 34.8706 26.5462C34.8339 26.8165 34.7505 27.1001 34.6114 27.3315C34.4602 27.5828 34.2177 27.7808 34.0153 28.001C33.8106 27.7864 33.5359 27.604 33.4169 27.3493C33.2245 26.9355 33.0865 26.4817 33.0098 26.0301C32.4426 22.7167 32.4147 19.4033 33.0754 16.0966C33.1333 15.8074 33.1844 15.4982 33.3279 15.2513C33.5103 14.9398 33.785 14.6818 34.0197 14.4004C34.24 14.6751 34.5603 14.9176 34.6615 15.2301C34.894 15.9475 35.0842 16.6905 35.1743 17.438C35.3244 18.6859 35.3834 19.9439 35.5157 21.6545Z" fill="black"/>
</svg>
