<svg width="29" height="25" viewBox="0 0 29 25" fill="none" xmlns="http://www.w3.org/2000/svg">
<path d="M23.5971 5.20447C23.0064 4.93717 22.6709 5.17917 22.3354 5.38817C19.4161 7.21194 16.4978 9.03791 13.5796 10.8639C11.7327 12.02 9.89132 13.1848 8.03124 14.32C7.81895 14.4498 7.47355 14.5004 7.23706 14.43C5.30769 13.858 3.38711 13.2563 1.46984 12.6459C0.959451 12.4831 0.288462 12.3775 0.277462 11.6977C0.267562 11.0564 0.882453 10.8188 1.38734 10.6208C3.90961 9.6352 6.44067 8.67492 8.96843 7.70693C14.7268 5.50147 20.4831 3.296 26.2404 1.09163C26.3262 1.05863 26.4109 1.02673 26.4978 0.995934C27.6758 0.58784 28.4942 1.17303 28.3908 2.42371C28.3259 3.2025 28.1213 3.97249 27.9574 4.74138C26.6782 10.755 25.3934 16.7675 24.1064 22.78C24.0569 23.011 23.9865 23.242 23.8941 23.4598C23.5652 24.2309 22.9877 24.4982 22.2067 24.2067C21.9042 24.0934 21.6193 23.9097 21.3553 23.7183C19.4733 22.351 17.5989 20.9727 15.7212 19.5989C15.5749 19.4922 15.4253 19.391 15.2526 19.2689C14.1659 20.305 13.1055 21.3423 12.011 22.3411C11.7239 22.6029 11.3279 22.747 10.9825 22.9439C10.9363 22.8999 10.8901 22.8548 10.8439 22.8108C10.9165 21.7042 10.988 20.5976 11.0639 19.4911C11.1244 18.6144 11.2091 17.7377 11.2443 16.8599C11.2597 16.4793 11.3939 16.2197 11.6744 15.9689C15.4308 12.6107 19.1796 9.24251 22.9283 5.87436C23.1373 5.68626 23.3265 5.47727 23.5971 5.20447Z" fill="#039BE5"/>
</svg>
