<svg width="24" height="25" viewBox="0 0 24 25" fill="none" xmlns="http://www.w3.org/2000/svg">
<g clip-path="url(#clip0_1126_19793)">
<path d="M10.8075 15.224C9.86484 16.3186 8.94049 17.3912 8.01707 18.4647C6.43561 20.3033 4.8505 22.1392 3.2782 23.9851C3.07137 24.2276 2.86088 24.3375 2.53873 24.3183C2.05368 24.2899 1.56588 24.3109 0.960938 24.3109C3.97741 20.8039 6.93256 17.3674 9.9106 13.9043C6.94172 9.58366 3.9829 5.27586 0.993884 0.925035C1.12659 0.903986 1.21994 0.877446 1.3142 0.877446C3.35874 0.8747 5.40236 0.882021 7.4469 0.868294C7.73519 0.866463 7.87887 0.990929 8.02622 1.20691C9.78979 3.78684 11.5616 6.36219 13.3307 8.93845C13.4423 9.10044 13.5549 9.26152 13.7041 9.47567C13.845 9.32009 13.9649 9.19288 14.0784 9.06017C16.327 6.4473 18.5793 3.83809 20.8179 1.21607C21.0393 0.956152 21.2617 0.850905 21.5967 0.869209C22.0772 0.895749 22.5595 0.875615 23.147 0.875615C20.2596 4.23345 17.4408 7.51167 14.6119 10.8009C17.6952 15.289 20.7666 19.7588 23.8764 24.2862C23.6833 24.2972 23.5552 24.3109 23.4271 24.3109C21.4438 24.3118 19.4606 24.3036 17.4774 24.3201C17.1626 24.3228 16.9859 24.2148 16.8148 23.9641C14.924 21.1938 13.0213 18.4308 11.1223 15.6669C11.028 15.5306 10.9301 15.397 10.8066 15.2249L10.8075 15.224ZM21.0906 22.8494C20.9679 22.659 20.8929 22.5318 20.8087 22.411C16.4268 16.1419 12.0238 9.88751 7.68485 3.58824C7.0735 2.69959 6.46582 2.22735 5.37857 2.39575C4.86972 2.47446 4.33891 2.40948 3.73763 2.40948C3.89138 2.63919 3.98107 2.7783 4.07533 2.91375C5.95148 5.59892 7.82762 8.28501 9.70468 10.9693C12.3935 14.8158 15.0814 18.6624 17.7758 22.5053C17.8718 22.6425 18.0293 22.8311 18.1629 22.8356C19.1156 22.864 20.0683 22.8512 21.0906 22.8512V22.8494Z" fill="black"/>
</g>
<defs>
<clipPath id="clip0_1126_19793">
<rect width="22.9155" height="23.4545" fill="white" transform="translate(0.960938 0.867188)"/>
</clipPath>
</defs>
</svg>
