<svg width="20" height="20" viewBox="0 0 20 20" fill="none" xmlns="http://www.w3.org/2000/svg">
<g clip-path="url(#clip0_519_1698)">
<path d="M14.6955 0.909424C16.7188 1.00806 18.3912 1.95453 19.3079 3.89243C20.2148 5.8093 19.9349 7.65727 18.5243 9.27968C17.8647 10.0376 17.0978 10.7128 16.3512 11.3967C15.8006 11.9008 14.9656 11.8594 14.4422 11.3532C13.9074 10.8354 13.8968 10.0376 14.4414 9.49508C15.0268 8.91197 15.635 8.34989 16.2279 7.77403C17.2725 6.75939 17.2922 5.22619 16.2771 4.26811C15.2696 3.31802 13.6941 3.34631 12.6488 4.33991C11.754 5.19065 10.8615 6.04356 9.97656 6.90372C8.96075 7.8908 8.93579 9.29346 9.90319 10.3284C10.4977 10.9645 10.4901 11.7688 9.88428 12.2931C9.29734 12.8016 8.46155 12.7327 7.86477 12.1271C6.0336 10.2697 5.9209 7.29391 7.69459 5.38647C8.75805 4.24345 9.91529 3.17587 11.0839 2.12932C12.0316 1.28148 13.2184 0.930456 14.6955 0.909424Z" fill="#FD6930"/>
<path d="M5.52842 19.492C3.52026 19.3933 1.84264 18.452 0.925163 16.5133C0.00390506 14.5667 0.31326 12.7086 1.7496 11.0659C2.24956 10.4937 2.82894 9.98162 3.39546 9.46668C3.96274 8.95102 4.80534 8.97785 5.33404 9.49497C5.86576 10.015 5.86879 10.8084 5.32496 11.3545C4.89005 11.7919 4.4332 12.2089 3.99073 12.6397C2.96206 13.6406 2.94089 15.1636 3.93929 16.1195C4.93921 17.0776 6.52608 17.0609 7.56911 16.0731C8.45633 15.2318 9.33825 14.3847 10.2172 13.5347C11.273 12.5142 11.3086 11.1246 10.3117 10.0563C9.73459 9.43767 9.74518 8.63916 10.3359 8.11697C10.9183 7.60203 11.7624 7.66295 12.3569 8.26347C14.1828 10.1064 14.3197 13.0698 12.5664 14.9779C11.4856 16.1543 10.2958 17.2444 9.09546 18.3113C8.16513 19.1388 6.99275 19.4709 5.52842 19.492Z" fill="#FD6930"/>
</g>
<defs>
<clipPath id="clip0_519_1698">
<rect width="19.4273" height="18.5827" fill="white" transform="translate(0.402344 0.909424)"/>
</clipPath>
</defs>
</svg>
